<svg height="512pt" viewBox="0 0 512 512" width="512pt" xmlns="http://www.w3.org/2000/svg"><path d="m437.015625 74.980469c-48.351563-48.347657-112.636719-74.97656275-181.015625-74.980469-68.378906.00390625-132.667969 26.632812-181.019531 74.980469-48.355469 48.355469-74.98437525 112.640625-74.980469 181.015625 0 49.875 14.269531 97.953125 41.328125 139.496094l-20.816406 80.988281c-1.320313 5.136719.171875 10.589843 3.921875 14.339843s9.203125 5.242188 14.339844 3.921876l82.320312-21.15625c40.480469 25.152343 86.972656 38.414062 134.902344 38.414062 68.382812 0 132.667968-26.628906 181.023437-74.980469 48.351563-48.355469 74.980469-112.640625 74.980469-181.023437-.003906-68.378906-26.632812-132.664063-74.984375-181.015625zm-31.0625 256.773437-62.488281 62.484375c-10.390625 10.390625-24.242188 16.109375-39.007813 16.109375s-28.617187-5.71875-39.007812-16.109375l-147.6875-147.691406c-21.507813-21.507813-21.507813-56.507813-.007813-78.015625l62.492188-62.484375c2.8125-2.8125 6.628906-4.394531 10.605468-4.394531 3.976563 0 7.792969 1.582031 10.605469 4.394531l56.800781 56.804687c5.859376 5.859376 5.855469 15.355469 0 21.210938l-23.476562 23.476562 69.675781 69.671876 23.476563-23.472657c5.859375-5.855469 15.355468-5.859375 21.210937 0l56.804688 56.804688c2.816406 2.8125 4.394531 6.628906 4.394531 10.605469.003906 3.980468-1.578125 7.792968-4.390625 10.605468zm0 0"/><path d="m315.0625 309.03125c-5.855469 5.855469-15.351562 5.855469-21.210938-.003906l-90.886718-90.882813c-2.8125-2.8125-4.394532-6.628906-4.394532-10.605469 0-3.980468 1.578126-7.792968 4.394532-10.605468l23.476562-23.476563-35.589844-35.59375-51.882812 51.878907c-9.808594 9.8125-9.804688 25.777343.007812 35.59375l147.683594 147.691406c4.726563 4.71875 11.042969 7.320312 17.796875 7.320312 6.753907 0 13.074219-2.601562 17.796875-7.324218l51.878906-51.875-35.59375-35.59375zm0 0"/></svg>